<svg width="911" height="869" viewBox="0 0 911 869" fill="none" xmlns="http://www.w3.org/2000/svg">
<g filter="url(#filter0_f_173_1281)">
<path fill-rule="evenodd" clip-rule="evenodd" d="M264.893 160.348C306.971 125.742 366.436 191.284 420.442 195.987C463.108 199.702 503.844 181.126 546.507 184.872C605.139 190.021 674.033 181.034 715.782 221.922C756.93 262.221 769.326 331.875 753.602 387.695C738.128 442.632 656.861 455.513 635.098 508.365C610.64 567.762 671.781 651.06 626.333 696.771C584.512 738.835 508.108 710.654 452.142 692.382C405.615 677.191 383.447 624.279 339.41 603.093C295.351 581.897 234.495 603.408 198.593 570.403C162.456 537.183 141.856 480.534 154.005 432.651C166.38 383.877 241.126 374.51 260.137 327.827C281.662 274.969 220.642 196.741 264.893 160.348Z" fill="url(#paint0_linear_173_1281)"/>
</g>
<defs>
<filter id="filter0_f_173_1281" x="0.505859" y="0.304688" width="909.677" height="868.391" filterUnits="userSpaceOnUse" color-interpolation-filters="sRGB">
<feFlood flood-opacity="0" result="BackgroundImageFix"/>
<feBlend mode="normal" in="SourceGraphic" in2="BackgroundImageFix" result="shape"/>
<feGaussianBlur stdDeviation="75" result="effect1_foregroundBlur_173_1281"/>
</filter>
<linearGradient id="paint0_linear_173_1281" x1="10.5" y1="7.49999" x2="835.04" y2="832.455" gradientUnits="userSpaceOnUse">
<stop stop-color="#71BBFF"/>
<stop offset="0.979167" stop-color="#EF8383"/>
</linearGradient>
</defs>
</svg>
