<svg width="881" height="922" viewBox="0 0 881 922" fill="none" xmlns="http://www.w3.org/2000/svg">
<g filter="url(#filter0_f_173_1279)">
<path fill-rule="evenodd" clip-rule="evenodd" d="M166.053 185.243C219.495 112.545 336.02 176.293 426.242 175.276C500.209 174.443 579.341 137.091 639.661 179.909C701.544 223.837 709.07 308.581 719.857 383.699C731.12 462.135 741.68 543.257 701.657 611.647C655.911 689.817 583.851 760.776 493.756 770.057C404.185 779.284 315.508 727.84 259.702 657.174C212.488 597.388 247.174 513.762 232.346 439.038C214.654 349.88 112.216 258.48 166.053 185.243Z" fill="url(#paint0_linear_173_1279)"/>
</g>
<defs>
<filter id="filter0_f_173_1279" x="0.569336" y="0.386719" width="879.529" height="920.742" filterUnits="userSpaceOnUse" color-interpolation-filters="sRGB">
<feFlood flood-opacity="0" result="BackgroundImageFix"/>
<feBlend mode="normal" in="SourceGraphic" in2="BackgroundImageFix" result="shape"/>
<feGaussianBlur stdDeviation="75" result="effect1_foregroundBlur_173_1279"/>
</filter>
<linearGradient id="paint0_linear_173_1279" x1="141" y1="295" x2="743" y2="256" gradientUnits="userSpaceOnUse">
<stop stop-color="#A0CFFB"/>
<stop offset="1" stop-color="#FF5F72" stop-opacity="0.65"/>
</linearGradient>
</defs>
</svg>
